<?xml version="1.0" encoding="UTF-8"?>
<svg width="760px" height="182px" viewBox="0 0 760 182" version="1.1" xmlns="http://www.w3.org/2000/svg" xmlns:xlink="http://www.w3.org/1999/xlink">
    <title>Group 27</title>
    <defs>
        <polygon id="path-1" points="0.1675 0.8408 13 0.8408 13 13.6628 0.1675 13.6628"></polygon>
        <polygon id="path-3" points="0 0.165 209.205 0.165 209.205 180.999987 0 180.999987"></polygon>
    </defs>
    <g id="Página-de-producto" stroke="none" stroke-width="1" fill="none" fill-rule="evenodd">
        <g id="Artboard" transform="translate(-471.000000, -2084.000000)">
            <g id="Group-27" transform="translate(471.000000, 2084.000000)">
                <path d="M254.4297,119.758 C254.4297,128.388 260.6007,129.38 266.0797,129.38 C290.2757,129.38 298.2027,111.14 298.2027,94.456 C298.2027,73.528 284.7777,58.409 263.1637,58.409 C258.5747,58.409 256.4557,58.729 254.4297,58.857 L254.4297,119.758 Z M243.4607,67.245 C243.4607,57.178 238.1997,57.846 233.1687,57.728 L233.1687,54.832 C237.5317,55.036 242.0097,55.036 246.3767,55.036 C251.0817,55.036 257.4657,54.832 265.7457,54.832 C294.7407,54.832 310.5217,74.181 310.5217,94.012 C310.5217,105.099 304.0347,132.978 264.4157,132.978 C258.7087,132.978 253.4237,132.755 248.1757,132.755 C243.1317,132.755 238.1997,132.873 233.1687,132.978 L233.1687,130.057 C239.8717,129.38 243.1317,129.162 243.4607,121.554 L243.4607,67.245 Z" id="Fill-1" fill="#FFFFFF"></path>
                <path d="M326.4414,64.5705 C323.5204,64.5705 320.9524,61.8795 320.9524,58.9745 C320.9524,56.1725 323.6364,53.5855 326.4414,53.5855 C329.3434,53.5855 331.9304,55.9405 331.9304,58.9745 C331.9304,61.9925 329.4554,64.5705 326.4414,64.5705 L326.4414,64.5705 Z M314.4574,130.0565 L316.5804,130.0565 C319.7144,130.0565 321.9544,130.0565 321.9544,126.3525 L321.9544,96.0285 C321.9544,91.0925 320.2804,90.4165 316.1304,88.1975 L316.1304,86.3985 C321.3974,84.8235 327.6614,82.7135 328.1154,82.3615 C328.9034,81.9245 329.5664,81.8115 330.1274,81.8115 C330.6834,81.8115 330.9154,82.4745 330.9154,83.3695 L330.9154,126.3525 C330.9154,130.0565 333.3814,130.0565 336.5104,130.0565 L338.4074,130.0565 L338.4074,132.9775 C334.6004,132.9775 330.6834,132.7555 326.6594,132.7555 C322.6264,132.7555 318.5964,132.8735 314.4574,132.9775 L314.4574,130.0565 Z" id="Fill-3" fill="#FFFFFF"></path>
                <path d="M349.0518,96.6916 C349.0518,92.5576 347.8188,91.4386 342.5608,89.3196 L342.5608,87.1776 C347.3648,85.6106 351.9578,84.1506 357.3308,81.8116 C357.6698,81.8116 357.9988,82.0276 357.9988,82.9136 L357.9988,90.2106 C364.3928,85.6106 369.8808,81.8116 377.3868,81.8116 C386.9058,81.8116 390.2568,88.7506 390.2568,97.4796 L390.2568,126.3526 C390.2568,130.0566 392.7278,130.0566 395.8478,130.0566 L397.8738,130.0566 L397.8738,132.9776 C393.9428,132.9776 390.0298,132.7546 386.0098,132.7546 C381.9678,132.7546 377.9388,132.8736 373.9098,132.9776 L373.9098,130.0566 L375.9318,130.0566 C379.0608,130.0566 381.2898,130.0566 381.2898,126.3526 L381.2898,97.3776 C381.2898,90.9816 377.3868,87.8506 370.9938,87.8506 C367.4098,87.8506 361.7078,90.7616 357.9988,93.2306 L357.9988,126.3526 C357.9988,130.0566 360.4748,130.0566 363.6138,130.0566 L365.6298,130.0566 L365.6298,132.9776 C361.7078,132.9776 357.7768,132.7546 353.7428,132.7546 C349.7238,132.7546 345.6808,132.8736 341.6568,132.9776 L341.6568,130.0566 L343.6878,130.0566 C346.8168,130.0566 349.0518,130.0566 349.0518,126.3526 L349.0518,96.6916 Z" id="Fill-5" fill="#FFFFFF"></path>
                <path d="M426.209,98.4855 C428.995,98.4855 429.32,97.0295 429.32,95.6895 C429.32,89.9735 425.853,85.3795 419.584,85.3795 C412.76,85.3795 408.063,90.4165 406.719,98.4855 L426.209,98.4855 Z M406.391,102.0735 C406.149,103.0865 406.149,104.7575 406.391,108.5685 C407.044,119.2035 413.887,127.9405 422.839,127.9405 C428.995,127.9405 433.817,124.5725 437.957,120.4325 L439.524,122.0045 C434.369,128.8355 427.994,134.6505 418.819,134.6505 C401.003,134.6505 397.434,117.4125 397.434,110.2475 C397.434,88.3015 412.199,81.8115 420.034,81.8115 C429.106,81.8115 438.856,87.5115 438.958,99.3805 C438.958,100.0665 438.958,100.7245 438.856,101.4065 L437.836,102.0735 L406.391,102.0735 Z" id="Fill-7" fill="#FFFFFF"></path>
                <path d="M441.5312,130.0568 L444.5682,130.0568 C447.6972,130.0568 449.9232,130.0568 449.9232,126.3528 L449.9232,94.9018 C449.9232,91.4388 445.7922,90.7618 444.1092,89.8578 L444.1092,88.1978 C452.2772,84.7188 456.7652,81.8118 457.7762,81.8118 C458.4392,81.8118 458.7772,82.1358 458.7772,83.2648 L458.7772,93.3318 L459.0182,93.3318 C461.8042,88.9718 466.5102,81.8118 473.3392,81.8118 C476.1352,81.8118 479.7092,83.6968 479.7092,87.7438 C479.7092,90.7618 477.5992,93.4598 474.4522,93.4598 C470.9742,93.4598 470.9742,90.7618 467.0612,90.7618 C465.1612,90.7618 458.8882,93.3318 458.8882,100.0668 L458.8882,126.3528 C458.8882,130.0568 461.1232,130.0568 464.2612,130.0568 L470.5302,130.0568 L470.5302,132.9778 C464.3682,132.8728 459.6772,132.7548 454.8642,132.7548 C450.2702,132.7548 445.5742,132.8728 441.5312,132.9778 L441.5312,130.0568 Z" id="Fill-9" fill="#FFFFFF"></path>
                <path d="M484.6328,117.4123 C486.1028,124.7903 490.5758,131.0723 498.7538,131.0723 C505.3468,131.0723 507.7948,127.0383 507.7948,123.1213 C507.7948,109.9183 483.4128,114.1523 483.4128,96.1403 C483.4128,89.8573 488.4568,81.8113 500.7708,81.8113 C504.3448,81.8113 509.1568,82.8173 513.5288,85.0503 L514.3178,96.4743 L511.7358,96.4743 C510.6218,89.4263 506.6998,85.3793 499.5378,85.3793 C495.0548,85.3793 490.8078,87.9693 490.8078,92.7733 C490.8078,105.8823 516.7788,101.8493 516.7788,119.4243 C516.7788,126.8073 510.8448,134.6503 497.5208,134.6503 C493.0238,134.6503 487.7768,133.0893 483.8538,130.8563 L482.6208,117.9733 L484.6328,117.4123 Z" id="Fill-11" fill="#FFFFFF"></path>
                <path d="M547.9102,92.5578 C547.9102,69.6048 568.3832,53.1308 590.3352,53.1308 C599.4172,53.1308 608.1332,56.0538 616.7562,59.0788 L617.8682,75.0818 L615.0722,75.0818 C612.9492,61.9928 603.6492,56.7258 591.1232,56.7258 C578.2392,56.7258 559.5322,65.3468 559.5322,92.2038 C559.5322,114.8408 575.6802,131.0728 592.9072,131.0728 C603.9882,131.0728 613.1772,123.4638 615.4202,111.6988 L617.9792,112.3688 L615.4202,128.7168 C610.7202,131.6378 598.0492,134.6508 590.6542,134.6508 C564.4662,134.6508 547.9102,117.7418 547.9102,92.5578" id="Fill-13" fill="#FFFFFF"></path>
                <path d="M621.9014,130.0568 L624.0344,130.0568 C627.1724,130.0568 629.4124,130.0568 629.4124,126.3528 L629.4124,64.0188 C629.4124,56.7258 627.7334,56.5008 623.4774,55.2748 L623.4774,53.4808 C627.9474,52.0298 632.6524,50.0198 635.0074,48.6608 C636.2364,47.9988 637.1404,47.4238 637.4734,47.4238 C638.1504,47.4238 638.3594,48.1008 638.3594,49.0048 L638.3594,126.3528 C638.3594,130.0568 640.8354,130.0568 643.9684,130.0568 L645.8704,130.0568 L645.8704,132.9778 C642.0774,132.9778 638.1504,132.7548 634.1084,132.7548 C630.0894,132.7548 626.0594,132.8728 621.9014,132.9778 L621.9014,130.0568 Z" id="Fill-15" fill="#FFFFFF"></path>
                <path d="M693.7969,126.8068 C693.7969,128.8348 695.0169,128.9368 696.9319,128.9368 C698.2669,128.9368 699.9589,128.8348 701.4139,128.8348 L701.4139,131.1838 C696.5879,131.6378 687.4089,133.9788 685.2669,134.6508 L684.7199,134.3178 L684.7199,125.2628 C678.0119,130.7438 672.8429,134.6508 664.8919,134.6508 C658.8509,134.6508 652.5919,130.7438 652.5919,121.3458 L652.5919,92.6738 C652.5919,89.7558 652.1329,86.9508 645.8739,86.3988 L645.8739,84.2708 C649.9169,84.1508 658.8509,83.4968 660.3159,83.4968 C661.5589,83.4968 661.5589,84.2708 661.5589,86.7378 L661.5589,115.6158 C661.5589,118.9668 661.5589,128.6038 671.2989,128.6038 C675.0909,128.6038 680.1349,125.6878 684.8259,121.7948 L684.8259,91.6548 C684.8259,89.4258 679.4529,88.1978 675.4389,87.0688 L675.4389,85.0498 C685.5129,84.3798 691.7849,83.4968 692.9019,83.4968 C693.7969,83.4968 693.7969,84.2708 693.7969,85.5088 L693.7969,126.8068 Z" id="Fill-17" fill="#FFFFFF"></path>
                <path d="M716.0684,120.3234 C716.0684,124.5724 720.0924,131.7394 727.6174,131.7394 C739.5964,131.7394 744.6314,119.9734 744.6314,110.0104 C744.6314,97.9274 735.4424,87.8504 726.7224,87.8504 C722.5544,87.8504 719.0914,90.5444 716.0684,93.1314 L716.0684,120.3234 Z M716.0684,89.8574 C720.5514,86.0704 726.6014,81.8114 732.7544,81.8114 C745.7444,81.8114 753.5844,93.1314 753.5844,105.3184 C753.5844,119.9734 742.8384,134.6504 726.8104,134.6504 C718.5304,134.6504 714.1724,131.9714 711.2564,130.7434 L707.8954,133.3044 L705.5584,132.0834 C706.5424,125.4764 707.1074,118.9674 707.1074,112.1474 L707.1074,64.0184 C707.1074,56.7254 705.4384,56.5014 701.1774,55.2744 L701.1774,53.4804 C705.6704,52.0294 710.3574,50.0194 712.7124,48.6614 C713.9364,47.9994 714.8364,47.4244 715.1874,47.4244 C715.8554,47.4244 716.0684,48.1004 716.0684,49.0054 L716.0684,89.8574 Z" id="Fill-19" fill="#FFFFFF"></path>
                <g id="Group-23" transform="translate(747.000000, 69.835000)">
                    <mask id="mask-2" fill="white">
                        <use xlink:href="#path-1"></use>
                    </mask>
                    <g id="Clip-22"></g>
                    <path d="M5.5635,7.2668 L6.3145,7.2668 C7.1445,7.2668 7.5255,6.6498 7.5255,5.6368 C7.5255,4.6108 6.9175,4.2578 6.2735,4.2578 L5.5635,4.2578 L5.5635,7.2668 Z M3.3945,10.6538 L3.3945,10.3358 C4.1725,10.2318 4.3315,10.2618 4.3315,9.7608 L4.3315,5.0138 C4.3315,4.3408 4.2605,4.1098 3.4175,4.1488 L3.4175,3.8228 L6.7095,3.8228 C7.8215,3.8228 8.8655,4.3708 8.8655,5.5238 C8.8655,6.4928 8.2435,7.1898 7.3485,7.4628 L8.3965,8.9358 C8.8975,9.5938 9.4495,10.2318 9.8245,10.4498 L9.8245,10.6538 L8.5725,10.6538 C7.9745,10.6538 7.4515,9.3918 6.2735,7.7088 L5.5635,7.7088 L5.5635,9.8258 C5.5635,10.2618 5.7115,10.2318 6.4915,10.3358 L6.4915,10.6538 L3.3945,10.6538 Z M6.5795,12.4678 C9.4495,12.4678 11.6605,10.0298 11.6605,7.2668 C11.6605,4.5078 9.4955,2.0348 6.5795,2.0348 C3.6955,2.0348 1.4985,4.5078 1.4985,7.2668 C1.4985,10.0298 3.6955,12.4678 6.5795,12.4678 L6.5795,12.4678 Z M6.5795,0.8408 C10.2505,0.8408 13.0005,3.6638 13.0005,7.2668 C13.0005,10.8728 10.2505,13.6628 6.5795,13.6628 C2.9215,13.6628 0.1675,10.8728 0.1675,7.2668 C0.1675,3.6638 2.9215,0.8408 6.5795,0.8408 L6.5795,0.8408 Z" id="Fill-21" fill="#FFFFFF" mask="url(#mask-2)"></path>
                </g>
                <g id="Group-26" transform="translate(0.000000, 0.835000)">
                    <mask id="mask-4" fill="white">
                        <use xlink:href="#path-3"></use>
                    </mask>
                    <g id="Clip-25"></g>
                    <path d="M143.877,90.4289 C143.841,68.0749 129.865,49.0069 110.18,41.4509 L110.18,139.3979 C129.865,131.8399 143.841,112.7909 143.877,90.4289 L143.877,90.4289 Z M72.613,139.3789 L72.613,41.4599 C52.941,49.0339 38.988,68.0749 38.935,90.4289 C38.988,112.7729 52.941,131.8049 72.613,139.3789 L72.613,139.3789 Z M91.405,7.6409 C45.687,7.6579 8.649,44.7099 8.636,90.4289 C8.649,136.1379 45.687,173.1809 91.405,173.1989 C137.124,173.1809 174.176,136.1379 174.189,90.4289 C174.176,44.7099 137.124,7.6579 91.405,7.6409 L91.405,7.6409 Z M91.202,180.999987 C41.173,181.2419 0,140.7159 0,91.3669 C0,37.4429 41.173,0.1569 91.202,0.164898713 L114.648,0.164898713 C164.082,0.1569 209.205,37.4339 209.205,91.3669 C209.205,140.6979 164.082,180.999987 114.648,180.999987 L91.202,180.999987 Z" id="Fill-24" fill="#FFFFFF" mask="url(#mask-4)"></path>
                </g>
            </g>
        </g>
    </g>
</svg>